<svg width="32" height="32" viewBox="0 0 32 32" fill="none" xmlns="http://www.w3.org/2000/svg">
<path d="M16 31C24.2843 31 31 24.2843 31 16C31 7.71573 24.2843 1 16 1C7.71573 1 1 7.71573 1 16C1 24.2843 7.71573 31 16 31Z" fill="#5A3E28"/>
<path d="M13.4632 22.838H16.6746C17.5107 22.838 18.1884 22.6219 18.7078 22.1899C19.2272 21.7578 19.658 21.0287 20 20.0025L19.5629 23H12V8.70105H19.677V10.3213C19.3349 9.98377 19.0055 9.71373 18.6888 9.51119C18.3848 9.30866 18.0554 9.16013 17.7007 9.06562C17.3587 8.9711 16.9723 8.91034 16.5416 8.88334C16.1108 8.85633 15.6041 8.84283 15.0214 8.84283H13.4632V12.1239C13.4632 12.8125 13.5455 13.3796 13.7102 13.8252C13.8749 14.2573 14.1219 14.5948 14.4513 14.8379C14.7807 15.0809 15.1924 15.2497 15.6865 15.3442C16.1805 15.4252 16.7506 15.4657 17.3967 15.4657V17.0657C17.118 16.7282 16.7823 16.4649 16.3895 16.2759C15.9968 16.0868 15.6041 15.8843 15.2114 15.6682C14.8314 15.4387 14.4766 15.1619 14.1473 14.8379C13.8306 14.5138 13.6025 14.0547 13.4632 13.4606V22.838ZM16.5036 4.32631C16.7063 4.12377 16.8709 4.01575 16.9976 4.00225C17.1243 3.98875 17.232 4.03601 17.3207 4.14402C17.4093 4.27905 17.4283 4.41407 17.3777 4.54909C17.327 4.68412 17.1876 4.82589 16.9596 4.97442C16.8456 5.06893 16.6492 5.1972 16.3705 5.35923C16.1045 5.52126 15.8321 5.69004 15.5534 5.86557C15.2241 6.0681 14.8757 6.27739 14.5083 6.49343L14.4893 6.43267L15.3444 5.52126C15.5724 5.27822 15.7941 5.04193 16.0095 4.81239C16.2375 4.58285 16.4022 4.42082 16.5036 4.32631Z" fill="#F6F4F0"/>
</svg>
