<svg width="1350" height="328" viewBox="0 0 1350 328" fill="none" xmlns="http://www.w3.org/2000/svg">
<path d="M1281.41 231.506C1266.6 232.894 1254.46 236.018 1244.97 240.876C1235.49 245.503 1227.62 251.056 1221.37 257.533C1215.36 263.78 1210.62 270.605 1207.15 278.008C1203.68 285.18 1200.55 291.889 1197.78 298.136C1196.16 302.531 1194.42 306.58 1192.57 310.282C1190.95 313.983 1189.1 317.107 1187.02 319.651C1184.94 322.196 1182.51 324.163 1179.73 325.551C1176.96 327.17 1173.6 327.864 1169.67 327.633C1168.51 327.402 1167.59 327.17 1166.89 326.939C1166.2 326.939 1165.27 326.361 1164.12 325.204C1154.63 321.04 1150.81 310.976 1152.66 295.012C1153.59 287.378 1155.21 278.818 1157.52 269.332C1160.07 259.616 1163.42 249.205 1167.59 238.1C1172.21 225.607 1177.53 212.536 1183.55 198.886C1189.56 185.005 1195.93 171.239 1202.64 157.589C1209.34 143.708 1216.17 130.174 1223.11 116.987C1230.05 103.8 1236.88 91.6542 1243.58 80.5493H1246.01L1349.77 325.551H1320.62L1281.41 231.506ZM1229.36 110.394C1224.04 120.573 1218.6 131.1 1213.05 141.973C1207.72 152.847 1202.4 163.836 1197.08 174.941C1191.99 185.814 1187.13 196.688 1182.51 207.561C1177.88 218.435 1173.72 228.846 1170.01 238.794C1165.85 249.899 1162.5 260.194 1159.95 269.679C1157.64 279.165 1156.02 287.609 1155.09 295.012C1154.63 302.184 1155.09 308.315 1156.48 313.405C1158.1 318.263 1160.99 321.387 1165.16 322.775C1166.31 323.237 1167.12 323.584 1167.59 323.816C1168.28 323.816 1169.09 324.047 1170.01 324.51C1176.96 324.972 1182.16 322.659 1185.63 317.569C1189.1 312.248 1192.22 305.539 1195 297.442C1197.78 290.964 1201.02 284.023 1204.72 276.62C1208.42 269.217 1213.28 262.276 1219.29 255.798C1225.54 249.089 1233.52 243.305 1243.24 238.447C1252.95 233.589 1265.33 230.465 1280.37 229.077L1229.36 110.394Z" fill="#5A3E28"/>
<path d="M946.936 190.209C955.958 192.292 963.593 195.878 969.839 200.967C976.086 206.057 981.523 212.072 986.15 219.013C991.008 225.953 995.172 233.588 998.643 241.917C1002.11 250.014 1005.58 258.111 1009.05 266.208C1012.29 273.843 1015.53 281.131 1018.77 288.071C1022.24 294.78 1025.94 300.796 1029.88 306.117C1033.81 311.206 1038.09 315.255 1042.72 318.263C1047.34 321.27 1052.55 322.774 1058.33 322.774V325.55C1042.6 325.55 1029.76 323.699 1019.81 319.998C1009.86 316.065 1002 310.975 996.213 304.729C990.43 298.482 986.15 291.31 983.373 283.213C980.828 275.116 978.746 266.903 977.127 258.574C975.739 250.245 974.351 242.032 972.963 233.935C971.806 225.838 969.839 218.666 967.063 212.419C964.287 206.173 960.123 201.199 954.57 197.497C949.249 193.564 941.73 191.598 932.013 191.598C914.431 191.598 900.318 183.269 889.676 166.612C883.661 156.895 879.149 144.98 876.142 130.868V325.55H848.727V80.2017H909.804C922.528 80.2017 934.558 81.2427 945.894 83.3249C957.231 85.1757 967.063 88.299 975.392 92.6947C983.952 97.0903 990.661 102.758 995.519 109.699C1000.38 116.64 1002.81 125.084 1002.81 135.032C1002.81 143.592 1001.3 151.111 998.296 157.589C995.288 164.067 991.239 169.619 986.15 174.246C981.06 178.642 975.16 182.228 968.451 185.004C961.742 187.549 954.57 189.284 946.936 190.209ZM975.392 135.032C975.392 125.084 973.541 116.871 969.839 110.393C966.138 103.684 961.279 98.3628 955.264 94.4298C949.249 90.2655 942.193 87.3736 934.095 85.7541C926.229 83.9033 918.132 82.9779 909.804 82.9779H876.142V104.494C876.142 117.218 877.53 128.554 880.306 138.502C883.314 148.45 887.247 157.242 892.105 164.876C896.963 172.048 902.747 177.948 909.456 182.575C916.397 186.97 923.916 189.168 932.013 189.168H934.442C939.995 188.937 945.2 187.665 950.059 185.351C955.148 183.038 959.544 179.683 963.246 175.287C966.947 170.892 969.839 165.339 971.921 158.63C974.235 151.921 975.392 144.055 975.392 135.032Z" fill="#5A3E28"/>
<path d="M600.499 84.0193C616.693 79.3922 632.772 78.3512 648.736 80.896C664.93 83.2095 679.737 88.415 693.155 96.5123C706.805 104.378 718.604 114.789 728.552 127.745C738.731 140.7 745.903 155.391 750.068 171.817C754.695 188.012 755.852 204.207 753.538 220.401C751.224 236.364 746.135 251.287 738.269 265.168C730.403 278.817 719.992 290.732 707.036 300.912C694.312 310.86 679.737 318.032 663.311 322.427C646.885 327.054 630.69 328.211 614.727 325.898C598.764 323.584 583.957 318.494 570.307 310.628C556.889 302.762 545.09 292.352 534.911 279.396C524.731 266.44 517.443 251.634 513.048 234.976C508.652 218.55 507.611 202.24 509.925 186.045C512.469 169.851 517.675 154.929 525.541 141.279C533.638 127.629 544.049 115.83 556.773 105.882C569.498 95.7025 584.073 88.415 600.499 84.0193ZM600.846 86.7955C586.039 90.7285 573.893 97.7847 564.408 107.964C555.154 117.912 548.213 129.596 543.586 143.014C538.959 156.432 536.53 170.661 536.299 185.698C536.067 200.505 537.687 214.502 541.157 227.689C544.627 240.876 550.18 253.831 557.814 266.556C565.449 279.28 574.587 290.269 585.23 299.523C595.872 308.546 607.786 315.255 620.973 319.651C634.16 323.815 648.042 323.931 662.617 319.998C677.423 316.296 689.569 309.356 699.055 299.176C708.54 288.766 715.596 276.851 720.223 263.433C725.082 250.014 727.627 235.902 727.858 221.095C728.321 206.057 726.817 191.945 723.347 178.758C719.876 165.339 714.324 152.268 706.689 139.544C699.055 126.819 689.801 115.83 678.927 106.576C668.285 97.322 656.255 90.7285 642.836 86.7955C629.649 82.6312 615.652 82.6312 600.846 86.7955Z" fill="#5A3E28"/>
<path d="M449.821 80.2017L431.776 122.539L346.06 325.55H343.284L239.869 80.2017H268.326L357.512 290.847L371.046 257.88L446.351 80.2017H449.821Z" fill="#5A3E28"/>
<path d="M26.7211 322.774H85.3688C100.638 322.774 113.015 319.073 122.501 311.669C131.986 304.266 139.852 291.773 146.099 274.19L138.117 325.551H0V80.549H140.199V108.311C133.953 102.527 127.938 97.9004 122.154 94.4301C116.601 90.9598 110.586 88.4149 104.108 86.7955C97.8618 85.176 90.8056 84.1349 82.9396 83.6722C75.0737 83.2095 65.8196 82.9782 55.1774 82.9782H26.7211V139.197C26.7211 150.996 28.2249 160.712 31.2325 168.347C34.2401 175.75 38.7514 181.534 44.7666 185.698C50.7817 189.863 58.3007 192.755 67.3234 194.374C76.3461 195.762 86.7569 196.456 98.5559 196.456V223.871C93.4661 218.088 87.3353 213.576 80.1634 210.337C72.9915 207.098 65.8196 203.628 58.6477 199.926C51.7071 195.994 45.2293 191.251 39.2141 185.698C33.4303 180.146 29.266 172.28 26.7211 162.1V322.774ZM82.2456 5.59099C85.9472 2.12072 88.9548 0.269911 91.2683 0.038562C93.5818 -0.192801 95.5483 0.616927 97.1677 2.46775C98.7872 4.78126 99.1342 7.09478 98.2088 9.40829C97.2834 11.7218 94.7386 14.151 90.5742 16.6959C88.4921 18.3153 84.9061 20.5132 79.8164 23.2894C74.958 26.0656 69.9839 28.9575 64.8942 31.9651C58.879 35.4354 52.5169 39.0213 45.8077 42.723L45.4606 41.6819L61.0769 26.0656C65.2412 21.9013 69.2899 17.8526 73.2228 13.9197C77.3872 9.98669 80.3947 7.21046 82.2456 5.59099Z" fill="#5A3E28"/>
</svg>
