<svg width="180" height="58" viewBox="0 0 180 58" fill="none" xmlns="http://www.w3.org/2000/svg">
<path d="M170.883 30.8727C168.909 31.0578 167.289 31.4743 166.024 32.1222C164.759 32.7392 163.71 33.4797 162.877 34.3435C162.075 35.1765 161.443 36.0867 160.98 37.0739C160.517 38.0303 160.1 38.925 159.73 39.7581C159.514 40.3442 159.283 40.8842 159.036 41.3778C158.82 41.8714 158.573 42.2879 158.296 42.6273C158.018 42.9667 157.694 43.2289 157.324 43.414C156.954 43.63 156.506 43.7225 155.982 43.6917C155.827 43.6608 155.704 43.63 155.611 43.5991C155.519 43.5991 155.396 43.522 155.241 43.3677C153.976 42.8124 153.467 41.4703 153.714 39.3415C153.837 38.3234 154.053 37.1819 154.362 35.917C154.701 34.6212 155.149 33.2328 155.704 31.7519C156.321 30.0859 157.031 28.3428 157.833 26.5225C158.635 24.6714 159.483 22.8357 160.378 21.0154C161.273 19.1643 162.183 17.3595 163.109 15.6009C164.034 13.8423 164.944 12.2226 165.839 10.7417H166.163L180 43.414H176.113L170.883 30.8727ZM163.942 14.7216C163.232 16.0791 162.507 17.4829 161.766 18.9329C161.057 20.383 160.347 21.8484 159.638 23.3293C158.959 24.7794 158.311 26.2294 157.694 27.6795C157.077 29.1295 156.522 30.5179 156.028 31.8445C155.473 33.3254 155.025 34.6983 154.686 35.9632C154.377 37.2282 154.161 38.3543 154.038 39.3415C153.976 40.298 154.038 41.1155 154.223 41.7943C154.439 42.4422 154.825 42.8587 155.38 43.0438C155.534 43.1055 155.642 43.1518 155.704 43.1826C155.797 43.1826 155.905 43.2135 156.028 43.2752C156.954 43.3369 157.648 43.0284 158.11 42.3496C158.573 41.64 158.99 40.7453 159.36 39.6655C159.73 38.8016 160.162 37.8761 160.656 36.8888C161.149 35.9015 161.797 34.976 162.599 34.1121C163.432 33.2174 164.497 32.4461 165.793 31.7982C167.088 31.1503 168.739 30.7338 170.744 30.5487L163.942 14.7216Z" fill="#231F20"/>
<path d="M126.279 25.3655C127.482 25.6431 128.5 26.1213 129.333 26.8001C130.166 27.4788 130.892 28.281 131.509 29.2065C132.156 30.1321 132.712 31.1502 133.175 32.2609C133.637 33.3407 134.1 34.4205 134.563 35.5004C134.995 36.5185 135.427 37.4903 135.859 38.4159C136.321 39.3106 136.815 40.1127 137.34 40.8223C137.864 41.5011 138.435 42.041 139.052 42.4421C139.669 42.8432 140.363 43.0437 141.134 43.0437V43.4139C139.036 43.4139 137.324 43.1671 135.998 42.6735C134.671 42.149 133.622 41.4702 132.851 40.6372C132.079 39.8042 131.509 38.8478 131.138 37.768C130.799 36.6882 130.521 35.5929 130.305 34.4822C130.12 33.3716 129.935 32.2763 129.75 31.1965C129.596 30.1167 129.333 29.1603 128.963 28.3273C128.593 27.4943 128.038 26.8309 127.297 26.3373C126.588 25.8128 125.585 25.5506 124.289 25.5506C121.944 25.5506 120.062 24.4399 118.643 22.2186C117.841 20.9228 117.239 19.3339 116.838 17.4519V43.4139H113.182V10.6953H121.327C123.024 10.6953 124.629 10.8341 126.14 11.1118C127.652 11.3586 128.963 11.7751 130.074 12.3613C131.215 12.9475 132.11 13.7034 132.758 14.6289C133.406 15.5545 133.73 16.6806 133.73 18.0072C133.73 19.1488 133.529 20.1515 133.128 21.0153C132.727 21.8792 132.187 22.6196 131.509 23.2367C130.83 23.8229 130.043 24.3011 129.148 24.6713C128.254 25.0107 127.297 25.2421 126.279 25.3655ZM130.074 18.0072C130.074 16.6806 129.827 15.5854 129.333 14.7215C128.84 13.8268 128.192 13.1172 127.39 12.5927C126.588 12.0374 125.647 11.6517 124.567 11.4358C123.518 11.1889 122.438 11.0655 121.327 11.0655H116.838V13.9348C116.838 15.6316 117.024 17.1434 117.394 18.47C117.795 19.7967 118.319 20.969 118.967 21.9872C119.615 22.9436 120.386 23.7303 121.281 24.3473C122.207 24.9335 123.209 25.2266 124.289 25.2266H124.613C125.354 25.1958 126.048 25.0261 126.696 24.7176C127.374 24.409 127.961 23.9617 128.454 23.3755C128.948 22.7893 129.333 22.0489 129.611 21.1542C129.92 20.2594 130.074 19.2105 130.074 18.0072Z" fill="#231F20"/>
<path d="M80.0799 11.2044C82.2395 10.5874 84.3838 10.4486 86.5125 10.7879C88.6722 11.0965 90.6467 11.7906 92.4361 12.8704C94.2564 13.9194 95.8299 15.3078 97.1565 17.0355C98.514 18.7632 99.4704 20.7223 100.026 22.9128C100.643 25.0724 100.797 27.2321 100.489 29.3917C100.18 31.5205 99.5013 33.5105 98.4523 35.3616C97.4033 37.1819 96.015 38.7707 94.2873 40.1282C92.5904 41.4549 90.6467 42.4113 88.4562 42.9975C86.2657 43.6145 84.1061 43.7688 81.9773 43.4603C79.8485 43.1517 77.874 42.473 76.0537 41.424C74.2643 40.375 72.6908 38.9867 71.3333 37.259C69.9758 35.5313 69.004 33.5567 68.4178 31.3354C67.8316 29.1449 67.6928 26.9698 68.0013 24.8102C68.3407 22.6505 69.0349 20.6606 70.0838 18.8403C71.1637 17.02 72.552 15.4466 74.2489 14.12C75.9457 12.7625 77.8894 11.7906 80.0799 11.2044ZM80.1262 11.5747C78.1516 12.0991 76.5319 13.0401 75.267 14.3976C74.0329 15.7243 73.1073 17.2823 72.4903 19.0717C71.8732 20.8611 71.5493 22.7585 71.5185 24.7639C71.4876 26.7384 71.7036 28.605 72.1663 30.3636C72.6291 32.1221 73.3696 33.8498 74.3877 35.5467C75.4058 37.2436 76.6245 38.709 78.0437 39.9431C79.4629 41.1464 81.0517 42.0411 82.8103 42.6273C84.5689 43.1826 86.42 43.198 88.3637 42.6735C90.3382 42.1799 91.9579 41.2543 93.2229 39.8968C94.4878 38.5085 95.4288 36.9196 96.0458 35.1302C96.6937 33.3408 97.0331 31.4588 97.0639 29.4843C97.1257 27.4789 96.9251 25.5969 96.4623 23.8384C95.9996 22.0489 95.2591 20.3058 94.241 18.6089C93.2229 16.9121 91.9888 15.4466 90.5387 14.2125C89.1195 12.9784 87.5152 12.0991 85.7258 11.5747C83.9673 11.0193 82.1007 11.0193 80.1262 11.5747Z" fill="#231F20"/>
<path d="M59.9862 10.6953L57.5797 16.3412L46.149 43.4139H45.7788L31.9879 10.6953H35.7827L47.6762 38.7861L49.481 34.3897L59.5234 10.6953H59.9862Z" fill="#231F20"/>
<path d="M3.56341 43.0438H11.3844C13.4206 43.0438 15.0712 42.5501 16.3362 41.5629C17.6011 40.5756 18.6501 38.9096 19.4831 36.5648L18.4187 43.414H0V10.7417H18.6963V14.4439C17.8633 13.6726 17.0612 13.0556 16.2899 12.5928C15.5494 12.13 14.7473 11.7906 13.8834 11.5747C13.0504 11.3587 12.1094 11.2199 11.0605 11.1582C10.0115 11.0965 8.77741 11.0656 7.35821 11.0656H3.56341V18.5627C3.56341 20.1361 3.76395 21.4319 4.16503 22.45C4.5661 23.4373 5.16772 24.2086 5.96987 24.7639C6.77203 25.3192 7.77472 25.7049 8.97795 25.9209C10.1812 26.106 11.5695 26.1985 13.143 26.1985V29.8545C12.4642 29.0832 11.6466 28.4816 10.6902 28.0497C9.73382 27.6177 8.77741 27.1549 7.821 26.6613C6.89543 26.1368 6.03158 25.5044 5.22942 24.7639C4.45812 24.0235 3.90278 22.9745 3.56341 21.617V43.0438ZM10.9679 0.74559C11.4615 0.28281 11.8626 0.0359941 12.1711 0.00514245C12.4797 -0.025711 12.7419 0.0822707 12.9579 0.329088C13.1738 0.637608 13.2201 0.946128 13.0967 1.25465C12.9733 1.56317 12.6339 1.88712 12.0786 2.22649C11.8009 2.44245 11.3227 2.73555 10.644 3.10577C9.99607 3.476 9.33275 3.86165 8.654 4.26273C7.85185 4.72551 7.00342 5.20371 6.10871 5.69734L6.06243 5.55851L8.14494 3.476C8.70028 2.92066 9.24019 2.38075 9.76467 1.85626C10.32 1.33178 10.7211 0.961555 10.9679 0.74559Z" fill="#231F20"/>
<path d="M164.608 58.0097C164.25 58.0097 163.928 57.9505 163.641 57.8322C163.356 57.7139 163.119 57.5461 162.931 57.3288C162.745 57.1115 162.62 56.8531 162.558 56.5537L162.985 56.4813C163.074 56.829 163.265 57.103 163.557 57.3034C163.852 57.5038 164.206 57.604 164.618 57.604C164.898 57.604 165.146 57.5594 165.361 57.47C165.576 57.3807 165.744 57.2551 165.864 57.0934C165.985 56.9292 166.045 56.7384 166.045 56.5211C166.045 56.3642 166.016 56.2326 165.958 56.1264C165.903 56.0201 165.83 55.9332 165.741 55.8656C165.652 55.7956 165.556 55.74 165.455 55.699C165.354 55.6555 165.258 55.6205 165.169 55.594L163.858 55.2028C163.684 55.1521 163.528 55.0893 163.391 55.0145C163.255 54.9372 163.141 54.8491 163.047 54.7501C162.955 54.6487 162.884 54.534 162.833 54.406C162.785 54.278 162.76 54.1356 162.76 53.9786C162.76 53.6986 162.835 53.4535 162.985 53.2434C163.135 53.0334 163.34 52.8704 163.601 52.7545C163.864 52.6362 164.166 52.577 164.506 52.577C164.849 52.5794 165.157 52.6434 165.43 52.769C165.703 52.8921 165.926 53.0672 166.1 53.2941C166.276 53.5211 166.389 53.7903 166.44 54.1018L166.009 54.1778C165.975 53.9388 165.888 53.73 165.748 53.5513C165.611 53.3726 165.435 53.2338 165.22 53.1348C165.005 53.0358 164.766 52.9863 164.503 52.9863C164.249 52.9839 164.024 53.0261 163.829 53.113C163.636 53.2 163.484 53.3171 163.373 53.4644C163.261 53.6116 163.206 53.7782 163.206 53.9642C163.206 54.1573 163.258 54.3119 163.362 54.4277C163.468 54.5412 163.597 54.6306 163.749 54.6958C163.904 54.7609 164.051 54.8141 164.191 54.8551L165.241 55.1666C165.34 55.1956 165.459 55.2366 165.596 55.2897C165.734 55.3428 165.869 55.4189 166.002 55.5179C166.135 55.6145 166.245 55.7437 166.332 55.9054C166.421 56.0648 166.466 56.2652 166.466 56.5066C166.466 56.7408 166.421 56.9509 166.332 57.1368C166.242 57.3227 166.114 57.4809 165.948 57.6113C165.781 57.7392 165.584 57.837 165.357 57.9046C165.13 57.9747 164.88 58.0097 164.608 58.0097Z" fill="#231F20"/>
<path d="M156.808 57.901V52.6857H160.032V53.0913H157.225V55.0724H159.597V55.478H157.225V57.4954H160.032V57.901H156.808Z" fill="#231F20"/>
<path d="M153.13 57.901V52.6857H153.547V57.901H153.13Z" fill="#231F20"/>
<path d="M146.386 57.901V52.6857H148.352C148.403 52.6857 148.458 52.6881 148.515 52.6929C148.576 52.6953 148.639 52.7026 148.704 52.7146C148.965 52.7557 149.188 52.8499 149.374 52.9971C149.562 53.142 149.706 53.3255 149.805 53.5476C149.904 53.7674 149.953 54.01 149.953 54.2756C149.953 54.6595 149.851 54.9939 149.645 55.2789C149.44 55.5638 149.154 55.7449 148.787 55.8221L148.668 55.8692H146.802V57.901H146.386ZM149.598 57.901L148.57 55.7787L148.957 55.5831L150.087 57.901H149.598ZM146.802 55.4599H148.345C148.389 55.4599 148.438 55.4575 148.494 55.4527C148.552 55.4479 148.61 55.4406 148.668 55.431C148.856 55.3923 149.013 55.3163 149.138 55.2028C149.264 55.0869 149.358 54.9481 149.421 54.7863C149.484 54.6245 149.515 54.4543 149.515 54.2756C149.515 54.0969 149.484 53.9279 149.421 53.7686C149.358 53.6068 149.264 53.4692 149.138 53.3557C149.013 53.2398 148.856 53.1625 148.668 53.1239C148.61 53.1118 148.552 53.1034 148.494 53.0985C148.438 53.0937 148.389 53.0913 148.345 53.0913H146.802V55.4599Z" fill="#231F20"/>
<path d="M141.117 58.0097C140.598 58.0097 140.162 57.895 139.81 57.6656C139.457 57.4338 139.192 57.1139 139.013 56.7058C138.834 56.2978 138.745 55.827 138.745 55.2933C138.745 54.7597 138.834 54.2889 139.013 53.8809C139.192 53.4728 139.457 53.1541 139.81 52.9247C140.162 52.6929 140.598 52.577 141.117 52.577C141.636 52.577 142.071 52.6929 142.421 52.9247C142.774 53.1541 143.039 53.4728 143.218 53.8809C143.397 54.2889 143.486 54.7597 143.486 55.2933C143.486 55.827 143.397 56.2978 143.218 56.7058C143.039 57.1139 142.774 57.4338 142.421 57.6656C142.071 57.895 141.636 58.0097 141.117 58.0097ZM141.117 57.6004C141.545 57.6028 141.901 57.5062 142.186 57.3107C142.471 57.1127 142.684 56.8398 142.827 56.4922C142.969 56.1445 143.04 55.7449 143.04 55.2933C143.04 54.8418 142.969 54.4422 142.827 54.0945C142.684 53.7469 142.471 53.4752 142.186 53.2796C141.901 53.0841 141.545 52.9863 141.117 52.9863C140.69 52.9839 140.334 53.0805 140.049 53.276C139.766 53.4716 139.554 53.7444 139.411 54.0945C139.269 54.4422 139.195 54.8418 139.191 55.2933C139.186 55.7449 139.255 56.1445 139.397 56.4922C139.542 56.8374 139.758 57.1091 140.045 57.307C140.333 57.5026 140.69 57.6004 141.117 57.6004Z" fill="#231F20"/>
<path d="M134.268 58.0097C133.911 58.0097 133.589 57.9505 133.301 57.8322C133.016 57.7139 132.78 57.5461 132.591 57.3288C132.406 57.1115 132.281 56.8531 132.218 56.5537L132.646 56.4813C132.735 56.829 132.926 57.103 133.218 57.3034C133.513 57.5038 133.866 57.604 134.279 57.604C134.559 57.604 134.807 57.5594 135.022 57.47C135.237 57.3807 135.404 57.2551 135.525 57.0934C135.646 56.9292 135.706 56.7384 135.706 56.5211C135.706 56.3642 135.677 56.2326 135.619 56.1264C135.564 56.0201 135.491 55.9332 135.402 55.8656C135.313 55.7956 135.217 55.74 135.116 55.699C135.014 55.6555 134.919 55.6205 134.83 55.594L133.519 55.2028C133.345 55.1521 133.189 55.0893 133.051 55.0145C132.916 54.9372 132.801 54.8491 132.707 54.7501C132.616 54.6487 132.544 54.534 132.494 54.406C132.445 54.278 132.421 54.1356 132.421 53.9786C132.421 53.6986 132.496 53.4535 132.646 53.2434C132.795 53.0334 133.001 52.8704 133.261 52.7545C133.525 52.6362 133.826 52.577 134.167 52.577C134.51 52.5794 134.818 52.6434 135.09 52.769C135.363 52.8921 135.587 53.0672 135.76 53.2941C135.937 53.5211 136.05 53.7903 136.101 54.1018L135.67 54.1778C135.636 53.9388 135.549 53.73 135.409 53.5513C135.272 53.3726 135.095 53.2338 134.88 53.1348C134.665 53.0358 134.426 52.9863 134.163 52.9863C133.91 52.9839 133.685 53.0261 133.49 53.113C133.296 53.2 133.144 53.3171 133.033 53.4644C132.922 53.6116 132.867 53.7782 132.867 53.9642C132.867 54.1573 132.919 54.3119 133.022 54.4277C133.129 54.5412 133.258 54.6306 133.41 54.6958C133.564 54.7609 133.712 54.8141 133.852 54.8551L134.902 55.1666C135.001 55.1956 135.119 55.2366 135.257 55.2897C135.395 55.3428 135.53 55.4189 135.663 55.5179C135.795 55.6145 135.905 55.7437 135.992 55.9054C136.082 56.0648 136.126 56.2652 136.126 56.5066C136.126 56.7408 136.082 56.9509 135.992 57.1368C135.903 57.3227 135.775 57.4809 135.608 57.6113C135.442 57.7392 135.245 57.837 135.018 57.9046C134.791 57.9747 134.541 58.0097 134.268 58.0097Z" fill="#231F20"/>
<path d="M127.625 58.0097C127.267 58.0097 126.945 57.9505 126.658 57.8322C126.373 57.7139 126.136 57.5461 125.948 57.3288C125.762 57.1115 125.637 56.8531 125.575 56.5537L126.002 56.4813C126.091 56.829 126.282 57.103 126.574 57.3034C126.869 57.5038 127.223 57.604 127.635 57.604C127.916 57.604 128.163 57.5594 128.378 57.47C128.593 57.3807 128.761 57.2551 128.881 57.0934C129.002 56.9292 129.062 56.7384 129.062 56.5211C129.062 56.3642 129.033 56.2326 128.976 56.1264C128.92 56.0201 128.848 55.9332 128.758 55.8656C128.669 55.7956 128.574 55.74 128.472 55.699C128.371 55.6555 128.275 55.6205 128.186 55.594L126.875 55.2028C126.701 55.1521 126.545 55.0893 126.408 55.0145C126.273 54.9372 126.158 54.8491 126.064 54.7501C125.972 54.6487 125.901 54.534 125.85 54.406C125.802 54.278 125.778 54.1356 125.778 53.9786C125.778 53.6986 125.852 53.4535 126.002 53.2434C126.152 53.0334 126.357 52.8704 126.618 52.7545C126.881 52.6362 127.183 52.577 127.523 52.577C127.866 52.5794 128.174 52.6434 128.447 52.769C128.72 52.8921 128.943 53.0672 129.117 53.2941C129.293 53.5211 129.407 53.7903 129.457 54.1018L129.026 54.1778C128.992 53.9388 128.906 53.73 128.765 53.5513C128.628 53.3726 128.452 53.2338 128.237 53.1348C128.022 53.0358 127.783 52.9863 127.52 52.9863C127.266 52.9839 127.042 53.0261 126.846 53.113C126.653 53.2 126.501 53.3171 126.39 53.4644C126.279 53.6116 126.223 53.7782 126.223 53.9642C126.223 54.1573 126.275 54.3119 126.379 54.4277C126.485 54.5412 126.614 54.6306 126.766 54.6958C126.921 54.7609 127.068 54.8141 127.208 54.8551L128.258 55.1666C128.357 55.1956 128.476 55.2366 128.613 55.2897C128.751 55.3428 128.886 55.4189 129.019 55.5179C129.152 55.6145 129.262 55.7437 129.349 55.9054C129.438 56.0648 129.483 56.2652 129.483 56.5066C129.483 56.7408 129.438 56.9509 129.349 57.1368C129.259 57.3227 129.131 57.4809 128.965 57.6113C128.798 57.7392 128.601 57.837 128.374 57.9046C128.147 57.9747 127.897 58.0097 127.625 58.0097Z" fill="#231F20"/>
<path d="M119.825 57.901V52.6857H123.049V53.0913H120.242V55.0724H122.614V55.478H120.242V57.4954H123.049V57.901H119.825Z" fill="#231F20"/>
<path d="M114.613 58.0097C114.094 58.0097 113.658 57.895 113.306 57.6656C112.953 57.4338 112.688 57.1139 112.509 56.7058C112.33 56.2978 112.241 55.827 112.241 55.2933C112.241 54.7597 112.33 54.2889 112.509 53.8809C112.688 53.4728 112.953 53.1541 113.306 52.9247C113.658 52.6929 114.094 52.577 114.613 52.577C115.219 52.577 115.711 52.734 116.087 53.0479C116.467 53.3617 116.724 53.7819 116.859 54.3082L116.428 54.4133C116.317 53.9762 116.109 53.6298 115.805 53.3738C115.503 53.1155 115.106 52.9863 114.613 52.9863C114.186 52.9863 113.83 53.0841 113.545 53.2796C113.262 53.4752 113.049 53.7469 112.904 54.0945C112.761 54.4422 112.689 54.8418 112.687 55.2933C112.682 55.7449 112.751 56.1445 112.893 56.4922C113.038 56.8374 113.254 57.1091 113.541 57.307C113.829 57.5026 114.186 57.6004 114.613 57.6004C115.106 57.6004 115.503 57.4712 115.805 57.2129C116.109 56.9545 116.317 56.608 116.428 56.1734L116.859 56.2785C116.724 56.8048 116.467 57.225 116.087 57.5388C115.711 57.8527 115.219 58.0097 114.613 58.0097Z" fill="#231F20"/>
<path d="M107.319 58.0097C106.8 58.0097 106.364 57.895 106.011 57.6656C105.659 57.4338 105.393 57.1139 105.215 56.7058C105.036 56.2978 104.947 55.827 104.947 55.2933C104.947 54.7597 105.036 54.2889 105.215 53.8809C105.393 53.4728 105.659 53.1541 106.011 52.9247C106.364 52.6929 106.8 52.577 107.319 52.577C107.925 52.577 108.416 52.734 108.793 53.0479C109.172 53.3617 109.429 53.7819 109.564 54.3082L109.133 54.4133C109.022 53.9762 108.815 53.6298 108.51 53.3738C108.209 53.1155 107.811 52.9863 107.319 52.9863C106.892 52.9863 106.535 53.0841 106.25 53.2796C105.968 53.4752 105.754 53.7469 105.609 54.0945C105.467 54.4422 105.395 54.8418 105.392 55.2933C105.387 55.7449 105.456 56.1445 105.599 56.4922C105.743 56.8374 105.96 57.1091 106.247 57.307C106.534 57.5026 106.892 57.6004 107.319 57.6004C107.811 57.6004 108.209 57.4712 108.51 57.2129C108.815 56.9545 109.022 56.608 109.133 56.1734L109.564 56.2785C109.429 56.8048 109.172 57.225 108.793 57.5388C108.416 57.8527 107.925 58.0097 107.319 58.0097Z" fill="#231F20"/>
<path d="M98.3438 57.901L100.191 52.6857H100.709L102.556 57.901H102.114L100.339 52.903H100.549L98.7856 57.901H98.3438ZM99.1079 56.5899V56.1952H101.788V56.5899H99.1079Z" fill="#231F20"/>
<path d="M88.1207 57.901V52.6857H89.6745C89.7348 52.6857 89.8326 52.6869 89.9678 52.6893C90.1055 52.6917 90.2358 52.7026 90.359 52.7219C90.7501 52.775 91.0749 52.9223 91.3332 53.1637C91.5916 53.4028 91.7847 53.707 91.9127 54.0764C92.0407 54.4434 92.1047 54.8491 92.1047 55.2933C92.1047 55.74 92.0407 56.1481 91.9127 56.5175C91.7847 56.8845 91.5916 57.1875 91.3332 57.4266C91.0749 57.6656 90.7501 57.8117 90.359 57.8648C90.2358 57.8817 90.1042 57.8926 89.9642 57.8974C89.8266 57.8998 89.73 57.901 89.6745 57.901H88.1207ZM88.559 57.4917H89.6745C89.7831 57.4917 89.8954 57.4893 90.0113 57.4845C90.1272 57.4773 90.2262 57.4664 90.3083 57.4519C90.6318 57.394 90.8926 57.266 91.0906 57.068C91.2886 56.8676 91.4322 56.6153 91.5216 56.3111C91.6133 56.0044 91.6592 55.6652 91.6592 55.2933C91.6592 54.9191 91.6133 54.5799 91.5216 54.2756C91.4298 53.969 91.2849 53.7167 91.087 53.5187C90.889 53.3183 90.6294 53.1903 90.3083 53.1348C90.2262 53.1203 90.1248 53.1106 90.004 53.1058C89.8857 53.0985 89.7759 53.0949 89.6745 53.0949H88.559V57.4917Z" fill="#231F20"/>
<path d="M81.0739 57.901V52.6857H81.494L84.5146 57.1585V52.6857H84.9347V57.901H84.5146L81.494 53.4209V57.901H81.0739Z" fill="#231F20"/>
<path d="M74.0397 57.901L75.8868 52.6857H76.4047L78.2518 57.901H77.8099L76.0353 52.903H76.2453L74.4815 57.901H74.0397ZM74.8039 56.5899V56.1952H77.484V56.5899H74.8039Z" fill="#231F20"/>
<path d="M66.2365 57.901V55.699L64.498 52.6857H64.9797L66.4466 55.2209L67.9097 52.6857H68.3914L66.6566 55.699V57.901H66.2365Z" fill="#231F20"/>
<path d="M58.411 57.901V52.6857H60.3776C60.4283 52.6857 60.4827 52.6881 60.5406 52.6929C60.601 52.6953 60.6637 52.7026 60.7289 52.7146C60.9897 52.7557 61.213 52.8499 61.399 52.9971C61.5873 53.142 61.731 53.3255 61.83 53.5476C61.929 53.7674 61.9784 54.01 61.9784 54.2756C61.9784 54.6595 61.8758 54.9939 61.6706 55.2789C61.4654 55.5638 61.1792 55.7449 60.8122 55.8221L60.6927 55.8692H58.8275V57.901H58.411ZM61.6235 57.901L60.5949 55.7787L60.9825 55.5831L62.1125 57.901H61.6235ZM58.8275 55.4599H60.3704C60.4138 55.4599 60.4633 55.4575 60.5189 55.4527C60.5768 55.4479 60.6348 55.4406 60.6927 55.431C60.8811 55.3923 61.038 55.3163 61.1635 55.2028C61.2891 55.0869 61.3833 54.9481 61.446 54.7863C61.5088 54.6245 61.5402 54.4543 61.5402 54.2756C61.5402 54.0969 61.5088 53.9279 61.446 53.7686C61.3833 53.6068 61.2891 53.4692 61.1635 53.3557C61.038 53.2398 60.8811 53.1625 60.6927 53.1239C60.6348 53.1118 60.5768 53.1034 60.5189 53.0985C60.4633 53.0937 60.4138 53.0913 60.3704 53.0913H58.8275V55.4599Z" fill="#231F20"/>
<path d="M52.1422 57.901V52.6857H55.3656V53.0913H52.5587V55.0724H54.931V55.478H52.5587V57.4954H55.3656V57.901H52.1422Z" fill="#231F20"/>
<path d="M46.3986 57.901V52.6857H46.8151V57.4954H49.3504V57.901H46.3986Z" fill="#231F20"/>
<path d="M40.5826 57.901V52.6857H40.9991V57.4954H43.5343V57.901H40.5826Z" fill="#231F20"/>
<path d="M34.2414 57.901V52.6857H37.4648V53.0913H34.6579V55.0724H37.0302V55.478H34.6579V57.4954H37.4648V57.901H34.2414Z" fill="#231F20"/>
<path d="M26.5064 57.901L25.0106 52.6857H25.4416L26.7201 57.1694L27.995 52.6857H28.4332L29.7117 57.1694L30.9865 52.6857H31.4248L29.9254 57.901H29.498L28.2159 53.4318L26.9338 57.901H26.5064Z" fill="#231F20"/>
<path d="M19.1148 57.901V52.6857H22.3382V53.0913H19.5313V55.0724H21.9036V55.478H19.5313V57.4954H22.3382V57.901H19.1148Z" fill="#231F20"/>
<path d="M14.5139 58.0024C14.1831 58.0024 13.8958 57.9082 13.6519 57.7199C13.4081 57.5316 13.2463 57.2805 13.1666 56.9666L13.5868 56.8688C13.6375 57.074 13.7473 57.2467 13.9163 57.3867C14.0853 57.5268 14.2858 57.5968 14.5175 57.5968C14.6648 57.5968 14.8121 57.563 14.9594 57.4954C15.1091 57.4253 15.2262 57.3107 15.3107 57.1513C15.3711 57.0378 15.4061 56.9183 15.4157 56.7927C15.4254 56.6648 15.4302 56.5115 15.4302 56.3328V52.6857H15.8504V56.3328C15.8504 56.4704 15.8491 56.5972 15.8467 56.7131C15.8443 56.829 15.831 56.94 15.8069 57.0463C15.7852 57.1525 15.7441 57.26 15.6838 57.3686C15.563 57.5811 15.3988 57.7404 15.1912 57.8467C14.986 57.9505 14.7602 58.0024 14.5139 58.0024Z" fill="#231F20"/>
</svg>
